<svg xmlns="http://www.w3.org/2000/svg" aria-hidden="true" overflow="hidden" style="position:absolute;width:0;height:0">
  <defs>
    <symbol id="icon-logo-company-sixth" viewBox="0 6 20 20">
      <path d="M16.145 15.628a.994.994 0 0 1-.206-.68v.003-.982c0-.301.068-.529.205-.686s.371-.234.703-.234c.312 0 .534.067.665.2.143.17.213.378.197.587v.231h-.558v-.263c0-.07-.006-.139-.018-.206l.001.007a.226.226 0 0 0-.08-.136.317.317 0 0 0-.178-.054l-.025.001h.001l-.024-.001a.343.343 0 0 0-.19.057l.001-.001a.263.263 0 0 0-.092.148v.002a1.12 1.12 0 0 0-.022.224v.02-.001 1.191a.603.603 0 0 0 .072.334.257.257 0 0 0 .11.08l.002.001a.303.303 0 0 0 .145.019h-.001a.303.303 0 0 0 .198-.054l-.001.001a.24.24 0 0 0 .083-.143v-.001c.013-.079.019-.159.017-.239v-.242h.559v.221l.002.058a.895.895 0 0 1-.196.561l.001-.002c-.128.146-.347.219-.669.219s-.564-.078-.702-.24zm2.325.01c-.141-.153-.212-.376-.212-.67v-1.033c0-.292.07-.512.212-.662s.377-.224.708-.224c.328 0 .563.075.704.224.141.15.213.37.213.662v1.032c0 .292-.072.515-.215.669s-.377.23-.702.23-.565-.078-.708-.229zm.968-.247a.564.564 0 0 0 .067-.305v-1.264l.001-.034a.561.561 0 0 0-.068-.268l.001.003a.257.257 0 0 0-.112-.081l-.002-.001a.294.294 0 0 0-.149-.018h.002a.297.297 0 0 0-.15.019l.002-.001a.264.264 0 0 0-.114.082v.001a.545.545 0 0 0-.067.3v1.27a.57.57 0 0 0 .067.306.353.353 0 0 0 .118.076.391.391 0 0 0 .289-.001l-.003.001a.363.363 0 0 0 .118-.076v-.006zm1.329-2.31h.601l.452 1.905.463-1.905h.585l.059 2.749h-.433l-.046-1.911-.446 1.911h-.347l-.462-1.918-.043 1.918h-.437l.054-2.749zm2.835 0h.937c.54 0 .81.26.81.781 0 .498-.284.748-.852.747h-.319v1.222H23.6l.003-2.75zm.8 1.174c.057.006.115.002.17-.013s.106-.04.148-.074a.443.443 0 0 0 .083-.31l.001-.03a.837.837 0 0 0-.03-.225l.001.006a.203.203 0 0 0-.043-.076.238.238 0 0 0-.071-.055l-.001-.001a.598.598 0 0 0-.228-.045l-.032.001h.001-.224v.822h.225zm1.78-1.174h.621l.637 2.749h-.539l-.126-.634h-.554l-.129.634h-.547l.637-2.749zm.531 1.797-.216-1.154-.216 1.154h.432zm1.242-1.797h.405l.774 1.568v-1.568h.48v2.749h-.385l-.78-1.637v1.637h-.496l.001-2.749zm2.783 1.7-.644-1.697h.543l.393 1.09.369-1.09h.531l-.636 1.697v1.048h-.555V14.78zm-13.7 2.251v.144h-.472v1.117h-.198v-1.117h-.474v-.144h1.144zm1.479 1.261h-.157a.075.075 0 0 1-.039-.012.064.064 0 0 1-.025-.029l-.137-.3h-.655l-.136.3a.085.085 0 0 1-.021.034.067.067 0 0 1-.039.012h-.156l.578-1.261h.201l.586 1.256zm-.958-.468h.546l-.232-.513a.851.851 0 0 1-.041-.112l-.002-.006-.022.067-.021.053-.229.512zm1.955.344a.706.706 0 0 0 .284-.038c.026-.009.051-.02.077-.031v-.284h-.233a.048.048 0 0 1-.029-.01.028.028 0 0 1-.009-.01.02.02 0 0 1-.003-.011v-.098h.449v.483a.833.833 0 0 1-.238.101l-.006.001a1.025 1.025 0 0 1-.145.026 1.759 1.759 0 0 1-.169.008h-.007a.87.87 0 0 1-.29-.049l.006.002a.707.707 0 0 1-.232-.133l.001.001a.62.62 0 0 1-.148-.196l-.002-.004a.616.616 0 0 1-.053-.253v-.017c0-.092.019-.18.054-.26l-.002.004a.576.576 0 0 1 .149-.2.706.706 0 0 1 .232-.131 1.08 1.08 0 0 1 .471-.036.813.813 0 0 1 .254.082c.035.02.069.042.101.066l-.055.078a.058.058 0 0 1-.018.017.06.06 0 0 1-.027.007.075.075 0 0 1-.036-.01.654.654 0 0 1-.06-.032l.003.002a.459.459 0 0 0-.074-.033l-.004-.001a.627.627 0 0 0-.102-.027l-.005-.001a.861.861 0 0 0-.139-.011h-.015a.674.674 0 0 0-.221.037l.005-.001a.434.434 0 0 0-.277.254l-.001.003a.586.586 0 0 0 .001.424L19 17.884a.502.502 0 0 0 .285.259c.074.022.151.03.229.025zm1.843-.02h.631v.144h-.824v-1.261h.197l-.004 1.117zm1.288.144h-.197v-1.261h.197v1.261zm.736-1.255a.086.086 0 0 1 .03.023l.845.95-.001-.022.001-.023v.001-.94h.172v1.266h-.105a.09.09 0 0 1-.037-.008h.001a.103.103 0 0 1-.031-.024l-.844-.95v.98h-.165V17.03h.103c.011 0 .022.002.032.006zm2.504-.006v.139h-.701v.416h.568v.134h-.568v.431h.701v.139h-.904v-1.258h.904zM5.162 9.245l8.781 2.152v7.543l-8.781-2.151V9.245zm-.564-.644v8.554l9.906 2.429v-8.553l-9.906-2.43z"/>
      <path d="M9.908 23.555 0 21.124v-8.553l9.908 2.43v8.554z"/>
      <path d="m4.763 9.148 8.667 2.126-3.685 3.183-8.668-2.127 3.687-3.182zm-.165-.546L0 12.571l9.908 2.431 4.597-3.97-9.906-2.43zm5.867 14.472 4.04-3.489-4.04-.991v4.48z"/>
    </symbol>
    <symbol id="icon-logo-company-fifth" viewBox="0 0 32 32">
      <path d="M2.416 23.738c.124.14.189.316.186.496l.001.038a.73.73 0 0 1-.069.31l.002-.004a.792.792 0 0 1-.221.282l-.002.001a1.322 1.322 0 0 1-.843.228h.004-1.475v-3.144h1.445a1.313 1.313 0 0 1 .805.211l-.005-.003a.739.739 0 0 1 .216.264.656.656 0 0 1 .064.325.686.686 0 0 1-.168.48.797.797 0 0 1-.435.245l-.005.001a.85.85 0 0 1 .498.269zm-1.73-.474h.618a.631.631 0 0 0 .393-.105.368.368 0 0 0 .104-.137l.001-.002a.344.344 0 0 0 .029-.138l-.001-.031v.001a.359.359 0 0 0-.029-.169l.001.002a.381.381 0 0 0-.103-.14.63.63 0 0 0-.406-.106h.002-.608v.825zm1.071 1.206a.4.4 0 0 0 .113-.142l.001-.002a.351.351 0 0 0 .033-.15l-.001-.026v.001l.001-.023a.376.376 0 0 0-.035-.157l.001.002a.408.408 0 0 0-.115-.144l-.001-.001a.673.673 0 0 0-.378-.115l-.043.001h.002-.648v.865h.656a.688.688 0 0 0 .414-.109zm3.612.621-.803-1.229h-.302v1.229h-.691v-3.145h1.309a1.368 1.368 0 0 1 .914.27l-.004-.003a.964.964 0 0 1 .313.7.946.946 0 0 1-.217.603l.001-.002a1.09 1.09 0 0 1-.618.319l-.006.001.856 1.257h-.752zm-1.105-1.658h.565c.393 0 .589-.158.589-.476l.001-.025a.427.427 0 0 0-.034-.168l.001.003a.484.484 0 0 0-.112-.163.646.646 0 0 0-.39-.13l-.057.002h.002-.572l.007.957zm4.884 1.024H7.77l-.243.633h-.725l1.265-3.11h.784l1.26 3.11h-.724l-.238-.633zm-.184-.476-.503-1.327-.503 1.327h1.007zm4.914 1.11h-.686l-1.539-2.138v2.138h-.685v-3.145h.685l1.539 2.151v-2.151h.686v3.145zm3.917-.753a1.433 1.433 0 0 1-.621.555 2.138 2.138 0 0 1-.909.199l-.059-.001h.003-1.221v-3.145h1.222l.057-.001c.329 0 .641.071.922.199l-.014-.006c.263.122.479.313.621.549.141.256.215.538.215.825s-.074.569-.215.825zm-.786-.075c.186-.195.301-.459.303-.75a1.095 1.095 0 0 0-.304-.751 1.259 1.259 0 0 0-.863-.267h.004-.476v2.036h.476c.024.002.051.002.079.002.296 0 .568-.102.783-.272l-.003.002zM9.578 4.453s8.857 3.062 8.67 7.493v7.494s-8.851-3.063-8.667-7.494l-.003-7.493zm16.56 13.232a12.85 12.85 0 0 1 5.628-1.899v-2.347c-2.327.822-4.302 2.311-5.628 4.245z"/>
      <path d="M25.134 18.392c1.369-2.524 3.742-4.472 6.633-5.444v-6.76S19.152 10.55 19.419 16.859v10.67s.562-.195 1.447-.561c0-.341 0-.685.041-1.031.261-2.929 1.781-5.643 4.228-7.546z"/>
      <path d="M23.934 22.356c.066-.74.214-1.472.441-2.185-1.524 1.643-2.446 3.683-2.638 5.831-.017.177-.029.39-.033.606v.009a35.154 35.154 0 0 0 2.629-1.27l-.203.1a9.858 9.858 0 0 1-.237-2.179c0-.321.015-.638.044-.951l-.003.04zm.502.038a9.713 9.713 0 0 0 .167 2.861l-.011-.063c3.446-1.889 7.319-4.806 7.17-8.332v-.307c-2.462.252-4.766 1.238-6.557 2.805a9.547 9.547 0 0 0-.765 2.998l-.003.038z"/>
    </symbol>
    <symbol id="icon-logo-company-fourth" viewBox="0 6 20 20">
      <path d="M4.949 13.027h-.001c-.903 0-1.635.65-1.635 1.453v.001c0 .802.732 1.453 1.635 1.453h.001c.903 0 1.635-.651 1.635-1.453v-.001c0-.803-.732-1.453-1.635-1.453zm12.066-.464c-.003-1.114-.502-2.183-1.388-2.971s-2.088-1.232-3.342-1.234c-1.254.002-2.457.446-3.344 1.234s-1.387 1.856-1.389 2.971v6.145s9.462-.937 9.463-6.144v-.001zM0 20.725c.002.776.35 1.518.967 2.067s1.453.857 2.325.859c.872-.002 1.708-.311 2.325-.859s.965-1.291.967-2.066V16.45S0 17.102 0 20.725zm3.292.765a.942.942 0 0 1-.479-.129.792.792 0 0 1-.315-.339l-.002-.005a.681.681 0 0 1-.048-.447l-.001.005a.737.737 0 0 1 .236-.392.89.89 0 0 1 .436-.209l.005-.001a.98.98 0 0 1 .504.045l-.007-.002c.158.058.293.156.387.282s.145.274.145.425v.002a.688.688 0 0 1-.067.297l.002-.004a.775.775 0 0 1-.186.249l-.001.001a.869.869 0 0 1-.28.167.945.945 0 0 1-.33.059H3.29v-.003zm6.018-1.371v1.606h-.331v-1.606h.331zm.64.686v.258h-.73v-.258h.73zm.077-.686v.259H9.22v-.259h.808zm1.511.766v.076c0 .122-.017.232-.05.329a.734.734 0 0 1-.141.249l.001-.001a.597.597 0 0 1-.216.155.688.688 0 0 1-.277.054h-.008a.69.69 0 0 1-.273-.056l.005.002a.629.629 0 0 1-.216-.155l-.001-.001a.738.738 0 0 1-.141-.243l-.002-.005a.984.984 0 0 1-.05-.314v-.015.001-.076c0-.123.017-.232.05-.329s.08-.18.14-.248a.625.625 0 0 1 .212-.155l.004-.002a.682.682 0 0 1 .268-.054h.01-.001c.102 0 .194.018.277.054s.156.088.216.157a.717.717 0 0 1 .141.248.984.984 0 0 1 .051.329zm-.334.076v-.078c0-.085-.008-.16-.023-.225a.47.47 0 0 0-.07-.165l.001.002a.293.293 0 0 0-.109-.098l-.002-.001a.308.308 0 0 0-.143-.034h-.006a.315.315 0 0 0-.149.034.3.3 0 0 0-.108.098l-.001.001a.505.505 0 0 0-.066.16l-.001.003a.946.946 0 0 0-.023.213v.013-.001.078c0 .084.008.159.023.225s.038.12.068.165a.296.296 0 0 0 .109.099l.002.001a.305.305 0 0 0 .143.034h.007a.315.315 0 0 0 .149-.034.287.287 0 0 0 .108-.099l.001-.001a.526.526 0 0 0 .067-.161l.001-.003c.015-.066.023-.14.023-.225zm1.409.344v-.003a.208.208 0 0 0-.014-.075l.001.001a.15.15 0 0 0-.046-.064.404.404 0 0 0-.093-.058l-.003-.001a1.278 1.278 0 0 0-.15-.057l-.01-.003a2 2 0 0 1-.22-.084l.013.005a.871.871 0 0 1-.174-.104l.002.001a.498.498 0 0 1-.116-.135l-.001-.002a.373.373 0 0 1-.042-.174v-.013c0-.065.016-.126.045-.179l-.001.002a.424.424 0 0 1 .123-.141.582.582 0 0 1 .187-.091.843.843 0 0 1 .231-.032h.009c.119 0 .222.021.31.064s.157.101.205.175a.454.454 0 0 1 .074.255h-.329v-.005a.246.246 0 0 0-.031-.12l.001.001a.196.196 0 0 0-.087-.084l-.001-.001a.307.307 0 0 0-.137-.031h-.011.001-.011a.348.348 0 0 0-.134.027l.002-.001a.196.196 0 0 0-.086.069v.001a.17.17 0 0 0-.029.095v.002c0 .027.007.052.02.074a.221.221 0 0 0 .061.061h.001c.027.019.06.038.1.054s.086.034.138.05c.087.026.164.056.23.089s.123.07.168.111c.045.041.079.088.102.14s.034.111.034.178v.015a.383.383 0 0 1-.158.311l-.001.001a.56.56 0 0 1-.184.087.877.877 0 0 1-.23.03h-.009a.916.916 0 0 1-.241-.032l.006.002a.704.704 0 0 1-.213-.098l.002.002a.498.498 0 0 1-.149-.161l-.001-.002a.465.465 0 0 1-.056-.235h.332c0 .05.008.092.023.127a.224.224 0 0 0 .064.084.286.286 0 0 0 .1.046h.002c.04.009.083.014.13.014h.012a.341.341 0 0 0 .132-.026l-.002.001a.174.174 0 0 0 .11-.162v-.002zm1.273-1.186v1.606h-.329v-1.606h.329zm.494 0v.259h-1.31v-.259h1.31zm1.266 1.348v.258h-.855v-.258h.855zm-.746-1.348v1.606h-.331v-1.606h.331zm.635.654v.251h-.743v-.251h.743zm.11-.654v.259h-.853v-.259h.853zm.195 0h.599c.123 0 .229.019.317.055s.157.091.205.163a.47.47 0 0 1 .072.266c0 .086-.014.16-.044.222s-.071.113-.122.153l-.001.001a.632.632 0 0 1-.18.095l-.004.001-.105.055h-.521l-.002-.258h.398a.29.29 0 0 0 .135-.032l-.002.001a.202.202 0 0 0 .086-.085l.001-.001a.26.26 0 0 0 .03-.122v-.014a.304.304 0 0 0-.029-.128l.001.002a.191.191 0 0 0-.086-.085h-.001a.32.32 0 0 0-.136-.03h-.278v1.347h-.331v-1.606zm.898 1.606-.366-.716.35-.002.37.703v.015h-.354zm1.737-.572h-.409v-.259h.422c.051 0 .1-.011.143-.032l-.002.001a.203.203 0 0 0 .087-.087l.001-.001a.321.321 0 0 0-.001-.262l.001.002a.225.225 0 0 0-.086-.099l-.001-.001a.281.281 0 0 0-.142-.038h-.013.001-.294v1.347h-.331v-1.606h.626c.126 0 .233.023.323.069s.16.107.207.186.072.17.072.273c0 .104-.024.193-.072.269s-.117.134-.207.175a.777.777 0 0 1-.324.062zm1.908.314v.258h-.855v-.258h.855zm-.747-1.348v1.606h-.331v-1.606h.331zm.635.654v.251h-.743v-.251h.743zm.11-.654v.259h-.853v-.259h.853zm.935 0v1.606h-.33v-1.606h.33zm.494 0v.259H20.5v-.259h1.31zm1.266 1.348v.258h-.855v-.258h.855zm-.747-1.348v1.606h-.331v-1.606h.331zm.636.655v.251h-.744v-.251h.744zm.11-.655v.259h-.854v-.259h.854zm.194 0h.599c.123 0 .229.019.316.055.089.037.158.091.206.163s.072.161.072.266c0 .086-.015.16-.044.222s-.07.113-.121.153l-.001.001a.632.632 0 0 1-.18.095l-.004.001-.105.055h-.521l-.002-.258h.398a.29.29 0 0 0 .135-.032l-.002.001a.205.205 0 0 0 .085-.085l.001-.001a.263.263 0 0 0 .03-.123v-.012a.287.287 0 0 0-.03-.128l.001.002a.191.191 0 0 0-.086-.085h-.001a.32.32 0 0 0-.136-.03H23.6v1.347h-.331v-1.607zm.898 1.606-.366-.716.35-.002.37.703v.015h-.354zm1.385-.42v-.003a.208.208 0 0 0-.014-.075v.001a.157.157 0 0 0-.046-.064.404.404 0 0 0-.093-.058l-.003-.001a1.278 1.278 0 0 0-.15-.057l-.01-.003a2 2 0 0 1-.22-.084l.013.005a.871.871 0 0 1-.174-.104l.002.001a.498.498 0 0 1-.116-.135l-.001-.002a.373.373 0 0 1-.042-.174v-.013c0-.065.016-.126.045-.179l-.001.002a.427.427 0 0 1 .124-.141c.053-.04.115-.07.187-.091s.152-.032.239-.032c.119 0 .222.021.31.064s.157.101.205.175a.454.454 0 0 1 .074.255h-.329v-.005a.246.246 0 0 0-.031-.12l.001.001a.196.196 0 0 0-.087-.084l-.001-.001a.307.307 0 0 0-.137-.031h-.011.001-.011a.348.348 0 0 0-.134.027l.002-.001a.196.196 0 0 0-.086.069v.001a.17.17 0 0 0-.029.095v.002c0 .027.007.052.02.074a.221.221 0 0 0 .061.061h.001c.027.019.061.038.101.054s.085.034.138.05c.087.026.164.056.23.089s.123.07.168.111c.045.041.079.088.102.14s.034.111.034.178v.014a.389.389 0 0 1-.158.313l-.001.001c-.052.038-.113.067-.184.087s-.151.03-.239.03a.936.936 0 0 1-.235-.031.704.704 0 0 1-.213-.098l.003.002a.498.498 0 0 1-.149-.161l-.001-.002a.465.465 0 0 1-.056-.235h.332c0 .05.008.092.023.127a.224.224 0 0 0 .064.084.286.286 0 0 0 .1.046h.002c.04.009.083.014.13.014h.012a.341.341 0 0 0 .132-.026l-.002.001a.174.174 0 0 0 .11-.162v-.002z"/>
    </symbol>
    <symbol id="icon-logo-company-third" viewBox="0 0 32 32">
      <path d="M5.266 30.294a.1.1 0 0 1 .061.024l.155.148c-.121.12-.269.216-.437.282a1.673 1.673 0 0 1-.578.101l-.042-.001h.002-.032a1.62 1.62 0 0 1-.56-.099l.011.004a1.275 1.275 0 0 1-.439-.267l.001.001a1.196 1.196 0 0 1-.281-.403l-.003-.008a1.337 1.337 0 0 1-.099-.511v-.017.001-.027c0-.362.157-.688.407-.912l.001-.001c.132-.116.291-.207.465-.268.191-.064.395-.096.599-.094h.037c.186 0 .364.031.53.089l-.011-.003c.154.058.295.139.417.238l-.13.158a.112.112 0 0 1-.033.028h-.001a.087.087 0 0 1-.045.012h-.007a.127.127 0 0 1-.058-.017h.001l-.069-.043-.097-.054a1.074 1.074 0 0 0-.3-.093l-.006-.001a1.298 1.298 0 0 0-.214-.017h-.018.001-.014c-.149 0-.292.026-.425.074l.009-.003a.998.998 0 0 0-.339.2l.001-.001a.905.905 0 0 0-.219.316c-.05.119-.079.258-.079.403v.015-.001.017c0 .147.029.287.082.414l-.003-.007a.894.894 0 0 0 .537.511c.127.046.262.068.399.068h.019c.077 0 .153-.005.227-.015l-.009.001a.928.928 0 0 0 .513-.219l-.001.001a.123.123 0 0 1 .073-.027zm4.479-.745v.016c0 .184-.039.358-.108.517l.003-.008a1.154 1.154 0 0 1-.29.406l-.001.001a1.342 1.342 0 0 1-.449.264l-.009.003a1.91 1.91 0 0 1-1.192-.004l.013.004a1.373 1.373 0 0 1-.456-.269l.001.001a1.193 1.193 0 0 1-.292-.403l-.003-.008a1.354 1.354 0 0 1 .003-1.057l-.003.009a1.2 1.2 0 0 1 .295-.412c.129-.113.284-.201.455-.258a1.851 1.851 0 0 1 1.193.004l-.013-.004c.172.06.328.151.457.267a1.2 1.2 0 0 1 .293.406c.072.169.107.348.105.528zm-.407 0v-.022a1.1 1.1 0 0 0-.077-.407l.003.008a.87.87 0 0 0-.529-.512l-.006-.002a1.35 1.35 0 0 0-.866.003l.01-.003a.911.911 0 0 0-.328.2.848.848 0 0 0-.208.309l-.002.006a1.228 1.228 0 0 0 .003.851l-.003-.009a.864.864 0 0 0 .532.51l.006.002c.276.09.58.09.857 0a.912.912 0 0 0 .327-.197.888.888 0 0 0 .208-.315c.052-.135.077-.278.074-.421zm3.463.442.041.094c.016-.033.029-.064.045-.094a.713.713 0 0 1 .053-.096l-.002.004.991-1.565c.02-.027.037-.044.057-.049s.044-.009.068-.009h.014-.001.293v2.546h-.347v-1.951l-.001-.044.002-.046v.002l-.998 1.587a.144.144 0 0 1-.058.057h-.001a.177.177 0 0 1-.084.021h-.06a.17.17 0 0 1-.084-.022h.001a.136.136 0 0 1-.057-.057v-.001l-1.026-1.597v2.043h-.335v-2.54h.306c.024 0 .048.003.07.009h-.002a.113.113 0 0 1 .054.049l1.012 1.567a.528.528 0 0 1 .049.088l.001.003zm3.728-.126v.953h-.387v-2.541h.865a1.86 1.86 0 0 1 .483.055.954.954 0 0 1 .341.159.666.666 0 0 1 .192.245l.002.004a.77.77 0 0 1 .066.326v.016c0 .23-.11.434-.279.563l-.002.001a.998.998 0 0 1-.343.168 1.585 1.585 0 0 1-.436.059h-.032l-.468-.007zm0-.274h.469a1.13 1.13 0 0 0 .301-.038.642.642 0 0 0 .218-.111l-.002.001a.487.487 0 0 0 .178-.377v-.006l.001-.027a.425.425 0 0 0-.04-.182l.001.003a.5.5 0 0 0-.134-.173l-.001-.001a.827.827 0 0 0-.461-.139l-.064.002h.003-.469v1.047zm5.212 1.23h-.312a.145.145 0 0 1-.08-.024h.001a.158.158 0 0 1-.051-.058v-.001l-.263-.614h-1.325l-.273.614a.147.147 0 0 1-.131.083h-.311l1.163-2.546h.403l1.179 2.546zm-1.92-.945h1.094l-.461-1.036a1.63 1.63 0 0 1-.087-.239l-.045.133a.899.899 0 0 1-.043.108l-.457 1.034zm3.595-1.588a.168.168 0 0 1 .057.044l1.697 1.919v-1.976h.347v2.546h-.197a.191.191 0 0 1-.076-.016h.001a.208.208 0 0 1-.062-.047l-1.695-1.917.001.044c0 .016 0 .031-.002.046v-.002 1.892h-.347v-2.546h.206a.21.21 0 0 1 .07.012zm4.959 1.521v1.011h-.388v-1.01l-1.072-1.533h.355c.028 0 .054.008.075.022h-.001a.243.243 0 0 1 .053.058l.671.989c.027.043.05.081.07.118s.036.073.049.107l.05-.11a.958.958 0 0 1 .066-.116l.661-.996a.281.281 0 0 1 .049-.054.127.127 0 0 1 .077-.025h.359l-1.074 1.54zm-15.766-5.805c.169.018.339.033.512.047 2.616-1.017 4.829-2.681 6.363-4.784s2.319-4.553 2.259-7.043l-2.884-2.505c.587 2.65.313 5.39-.791 7.913s-2.994 4.729-5.459 6.372z"/>
      <path d="m11.58 23.888.078.014c2.634-1.638 4.641-3.923 5.764-6.562s1.308-5.51.533-8.242L13.848 5.53c1.66 2.933 2.33 6.215 1.927 9.465-.401 3.25-1.856 6.333-4.196 8.892zm13.926-8.723c-.698 2.736-2.392 5.202-4.832 7.035-.666.507-1.418.982-2.209 1.391l-.086.04c1.987-.507 3.812-1.404 5.337-2.621s2.707-2.723 3.456-4.4l-1.665-1.446z"/>
      <path d="m24.853 14.763-2.371-2.06c-.046 2.349-.814 4.644-2.226 6.647s-3.416 3.642-5.803 4.745h.011c.532 0 1.063-.028 1.591-.082 2.231-.791 4.202-2.05 5.737-3.664s2.586-3.533 3.06-5.586zM11.922 4.025l-2.829-2.46c-2.529.849-4.703 2.342-6.24 4.282s-2.362 4.24-2.37 6.595c.009 2.603 1.018 5.129 2.866 7.177 1.847 2.048 4.428 3.504 7.334 4.134 2.594-2.746 4.113-6.14 4.336-9.687s-.863-7.065-3.098-10.041zm19.466 10.359c-.01-3.088-1.427-6.047-3.94-8.23s-5.919-3.414-9.473-3.423h-.026c-1.709 0-3.351.285-4.882.809l.106-.032 17.319 15.047c.564-1.226.894-2.659.896-4.17v-.001z"/>
    </symbol>
    <symbol id="icon-logo-company-first" viewBox="0 0 32 32">
      <path d="m6.128 0 4.771 4.517-8.857-.005v21.915h23.149v-8.379l4.766 4.512V.001H6.127zm18.854 17.517L11.454 4.71h13.528v12.807zm-4.2 5.703H5.706V8.482h1.066v13.74h14.011v.997zM9.266 29.345l-.557 1.147-.557-1.147h-.467l.813 1.529v.891h.422v-.891l.811-1.529h-.465zm.7 2.42.196-.564h.938l.197.564h.439l-.916-2.42h-.378l-.914 2.42h.437zm.665-1.906.351 1.004h-.701l.351-1.004zm2.217.945a.544.544 0 0 0-.091.303v.004c0 .204.072.37.214.497s.336.19.575.19a1 1 0 0 0 .618-.195l.136.161h.468l-.355-.421c.14-.191.209-.435.209-.733h-.351a.973.973 0 0 1-.101.444l-.468-.552.165-.12a.922.922 0 0 0 .249-.249l.002-.003a.53.53 0 0 0 .076-.275v-.013a.495.495 0 0 0-.169-.374h-.001a.61.61 0 0 0-.408-.157h-.025.001c-.195 0-.35.056-.465.166s-.173.259-.173.449c0 .078.018.157.054.241.038.083.104.184.197.302-.179.129-.3.24-.36.334zm1.092.536a.613.613 0 0 1-.382.136h-.02a.395.395 0 0 1-.27-.106.36.36 0 0 1-.108-.259v-.014.001c0-.129.067-.245.2-.346l.052-.037.528.624zm-.433-1.073c-.114-.141-.172-.257-.172-.351 0-.081.024-.148.07-.201a.239.239 0 0 1 .178-.081h.01-.001.009c.067 0 .127.026.173.068a.214.214 0 0 1 .072.161v.009a.3.3 0 0 1-.103.226l-.052.041-.184.127zm3.939 1.315c.166-.145.261-.347.286-.605h-.419c-.022.173-.075.296-.158.37s-.208.112-.372.112c-.18 0-.318-.069-.412-.206s-.14-.337-.14-.599v-.214c.003-.259.052-.453.15-.587a.494.494 0 0 1 .422-.201c.157 0 .276.039.357.116s.133.202.153.376h.419c-.027-.265-.121-.47-.285-.615s-.378-.218-.645-.218a.978.978 0 0 0-.525.142.925.925 0 0 0-.345.396l-.002.006a1.396 1.396 0 0 0-.122.576v.03-.001.226c.003.223.045.418.125.587s.193.298.339.39a.955.955 0 0 0 .511.136c.276 0 .497-.072.663-.216zm2.472-.339c.082-.18.123-.388.123-.625v-.158c0-.216-.047-.421-.131-.605l.004.009a.932.932 0 0 0-.35-.406l-.004-.002a.952.952 0 0 0-.505-.143h-.019.001a.967.967 0 0 0-.525.144.939.939 0 0 0-.354.414c-.079.175-.125.38-.125.595v.032-.002.136c.001.232.043.436.126.613a.95.95 0 0 0 .356.411.98.98 0 0 0 .525.143.971.971 0 0 0 .526-.143.941.941 0 0 0 .352-.413zm-.45-1.369c.102.143.152.349.152.618v.126c0 .272-.05.48-.151.622a.49.49 0 0 1-.429.213h-.017a.503.503 0 0 1-.413-.216l-.001-.002c-.104-.145-.155-.351-.155-.617v-.14c.002-.26.054-.462.156-.603a.498.498 0 0 1 .409-.215h.018-.001c.187 0 .33.072.431.214z"/>
    </symbol>
		<symbol id="icon-logo-company-second" viewBox="0 0 25 32">
			<path d="M10.532 1.806h-0.084c-0.129-0.008-0.258-0.011-0.388-0.014h-0.28c-0.244 0-0.494 0.006-0.741 0.018-0.008-0.001-0.018-0.001-0.028-0.001s-0.020 0-0.029 0.001l0.001-0c-2.376 0.138-4.582 0.733-6.576 1.696l0.104-0.045-0.266 0.128v13.626l0.623-0.212c0.546-0.188 1.129-0.357 1.731-0.513 1.488-0.398 3.202-0.638 4.967-0.661l0.014-0v1.79c-0.234 0.001-0.463 0.008-0.691 0.020l0.035-0.002h-0.052c-1.399 0.079-2.709 0.289-3.971 0.619l0.139-0.031c-1.734 0.441-3.254 1.050-4.666 1.83l0.1-0.051v-17.475c1.379-0.82 2.975-1.488 4.665-1.921l0.127-0.028c1.353-0.364 2.907-0.576 4.51-0.582h0.267c0.314 0.008 0.622 0.022 0.91 0.044 0.829 0.060 1.597 0.187 2.339 0.378l-0.090-0.020v1.762c-0.628-0.154-1.373-0.271-2.134-0.326l-0.045-0.003-0.044-0.004c-0.152-0.013-0.304-0.026-0.446-0.026zM13.633 3.607c0.391 0.030 0.796 0.044 1.205 0.044 1.689-0.007 3.324-0.228 4.881-0.639l-0.135 0.030c1.734-0.442 3.252-1.052 4.665-1.831l-0.101 0.051v17.163c-1.379 0.819-2.975 1.487-4.664 1.921l-0.127 0.028c-1.353 0.363-2.908 0.574-4.511 0.581h-0.004c-0.033 0-0.072 0-0.111 0-1.177 0-2.319-0.147-3.409-0.425l0.095 0.021v-17.275c0.265 0.062 0.537 0.118 0.814 0.164 0.455 0.077 0.934 0.133 1.401 0.167zM22.367 3.74l-0.623 0.209c-0.378 0.139-0.955 0.316-1.541 0.474l-0.19 0.044c-1.551 0.415-3.332 0.657-5.169 0.663h-0.004c-0.406 0-0.78-0.011-1.141-0.034l-0.497-0.033v14.017l0.426 0.037c0.395 0.035 0.803 0.052 1.214 0.052 1.45-0.006 2.853-0.198 4.189-0.553l-0.116 0.026c1.221-0.31 2.281-0.702 3.285-1.189l-0.102 0.044 0.266-0.128v-13.63z"></path>
			<path d="M1.684 25.977c-0.167-0.173-0.401-0.281-0.661-0.281-0.011 0-0.023 0-0.034 0.001l0.002-0c-0.004-0-0.009-0-0.014-0-0.139 0-0.272 0.028-0.393 0.078l0.007-0.003c-0.237 0.095-0.42 0.28-0.51 0.512l-0.002 0.006c-0.049 0.123-0.073 0.254-0.071 0.386v2.335c-0.006 0.164 0.026 0.328 0.092 0.479 0.055 0.12 0.135 0.226 0.234 0.313 0.093 0.078 0.202 0.135 0.32 0.166 0.114 0.031 0.231 0.048 0.349 0.048 0.13 0.001 0.258-0.026 0.377-0.081 0.351-0.156 0.591-0.5 0.591-0.901v-0.261h-0.611v0.208c0 0.004 0 0.009 0 0.014 0 0.070-0.013 0.136-0.037 0.198l0.001-0.004c-0.021 0.052-0.051 0.095-0.089 0.132l-0 0c-0.070 0.054-0.159 0.088-0.255 0.089h-0c-0.011 0.001-0.023 0.002-0.036 0.002-0.103 0-0.194-0.050-0.25-0.127l-0.001-0.001c-0.051-0.082-0.082-0.182-0.082-0.289 0-0.008 0-0.016 0.001-0.024l-0 0.001v-2.177c-0.004-0.121 0.022-0.24 0.075-0.349 0.056-0.087 0.153-0.143 0.262-0.143 0.013 0 0.025 0.001 0.038 0.002l-0.001-0c0.003-0 0.007-0 0.012-0 0.107 0 0.201 0.052 0.26 0.131l0.001 0.001c0.063 0.082 0.101 0.187 0.101 0.3 0 0.005-0 0.009-0 0.014v-0.001 0.202h0.604v-0.238c0-0.003 0-0.007 0-0.011 0-0.143-0.027-0.28-0.077-0.405l0.003 0.007c-0.048-0.128-0.117-0.237-0.205-0.329l0 0zM5.31 25.951c-0.186-0.158-0.429-0.255-0.694-0.257h-0c-0.124 0-0.248 0.023-0.364 0.066-0.252 0.090-0.451 0.276-0.557 0.511l-0.002 0.006c-0.062 0.142-0.092 0.297-0.089 0.452v2.239c-0.004 0.158 0.026 0.314 0.089 0.458 0.055 0.121 0.135 0.228 0.236 0.313 0.094 0.086 0.203 0.154 0.322 0.197 0.117 0.043 0.24 0.065 0.364 0.066 0.267-0.001 0.51-0.1 0.695-0.264l-0.001 0.001c0.097-0.087 0.176-0.194 0.23-0.313 0.063-0.144 0.093-0.301 0.089-0.458v-2.239c0-0.006 0-0.013 0-0.020 0-0.156-0.033-0.305-0.092-0.439l0.003 0.007c-0.057-0.128-0.135-0.237-0.23-0.327l-0-0zM5.025 28.969c0.001 0.010 0.002 0.023 0.002 0.035 0 0.114-0.047 0.216-0.123 0.289l-0 0c-0.077 0.065-0.178 0.105-0.287 0.105s-0.21-0.040-0.288-0.105l0.001 0.001c-0.076-0.073-0.123-0.175-0.123-0.289 0-0.012 0.001-0.025 0.002-0.037l-0 0.002v-2.239c-0.001-0.010-0.001-0.022-0.001-0.034 0-0.113 0.047-0.216 0.123-0.289l0-0c0.077-0.065 0.178-0.105 0.287-0.105s0.21 0.040 0.288 0.105l-0.001-0.001c0.076 0.073 0.123 0.175 0.123 0.289 0 0.012-0.001 0.025-0.002 0.037l0-0.002v2.24zM10.072 29.969v-4.24h-0.586l-0.771 2.244h-0.010l-0.777-2.244h-0.58v4.239h0.606v-2.578h0.011l0.593 1.823h0.302l0.598-1.823h0.010v2.578h0.606zM13.513 26.027c-0.093-0.105-0.211-0.185-0.342-0.232-0.124-0.042-0.267-0.066-0.416-0.066-0.008 0-0.016 0-0.024 0l0.001-0h-0.9v4.24h0.604v-1.656h0.311c0.015 0.001 0.032 0.001 0.050 0.001 0.18 0 0.351-0.043 0.501-0.12l-0.006 0.003c0.139-0.078 0.251-0.188 0.329-0.32l0.002-0.004c0.070-0.113 0.117-0.238 0.138-0.369 0.021-0.133 0.033-0.287 0.033-0.444 0-0.013-0-0.027-0-0.040l0 0.002c0.006-0.203-0.014-0.407-0.059-0.606-0.043-0.153-0.12-0.284-0.223-0.39l0 0zM13.201 27.319c-0.003 0.081-0.023 0.157-0.057 0.224l0.001-0.003c-0.035 0.065-0.089 0.116-0.154 0.147l-0.002 0.001c-0.075 0.034-0.162 0.054-0.254 0.054-0.011 0-0.022-0-0.033-0.001l0.002 0h-0.276v-1.441h0.311c0.009-0 0.019-0.001 0.029-0.001 0.088 0 0.172 0.020 0.247 0.055l-0.004-0.002c0.062 0.036 0.111 0.090 0.141 0.154l0.001 0.002c0.032 0.069 0.051 0.15 0.053 0.236v0.283c0 0.098 0.006 0.201 0 0.291h-0.006zM16.374 25.729h-0.495l-0.934 4.24h0.604l0.177-0.911h0.823l0.178 0.911h0.604l-0.958-4.24zM15.817 28.481l0.297-1.537h0.011l0.295 1.537h-0.604zM20.277 28.283h-0.011l-0.912-2.554h-0.581v4.24h0.604v-2.55h0.012l0.923 2.549h0.568v-4.239h-0.604v2.554zM23.968 25.729l-0.486 1.686h-0.012l-0.486-1.686h-0.639l0.83 2.448v1.791h0.604v-1.791l0.83-2.447h-0.64zM0 31.166h0.291v0.817h0.198v-0.817h0.289v-0.167h-0.778v0.168zM2.447 30.998l-0.382 0.985h0.21l0.081-0.224h0.392l0.084 0.224h0.215l-0.391-0.985h-0.21zM2.417 31.593l0.134-0.365 0.134 0.365h-0.268zM4.866 31.62h0.228v0.127c-0.063 0.051-0.145 0.082-0.234 0.083h-0c-0.004 0-0.009 0-0.014 0-0.079 0-0.149-0.037-0.195-0.094l-0-0c-0.046-0.065-0.073-0.147-0.073-0.234 0-0.008 0-0.016 0.001-0.023l-0 0.001c0-0.219 0.095-0.329 0.283-0.329 0.006-0.001 0.014-0.001 0.021-0.001 0.097 0 0.178 0.067 0.201 0.157l0 0.001 0.194-0.038c-0.042-0.192-0.18-0.289-0.417-0.289-0.004-0-0.008-0-0.013-0-0.127 0-0.244 0.048-0.331 0.127l0-0c-0.088 0.087-0.143 0.208-0.143 0.342 0 0.013 0 0.026 0.002 0.038l-0-0.002c-0 0.007-0 0.015-0 0.023 0 0.132 0.048 0.254 0.127 0.347l-0.001-0.001c0.087 0.090 0.209 0.146 0.343 0.146 0.011 0 0.021-0 0.032-0.001l-0.001 0c0.005 0 0.010 0 0.016 0 0.155 0 0.296-0.060 0.402-0.157l-0 0v-0.388h-0.426v0.166zM7.337 30.998h-0.199v0.985h0.689v-0.167h-0.49v-0.817zM9.426 30.998h-0.199v0.985h0.199v-0.985zM11.469 31.655l-0.404-0.657h-0.193v0.985h0.185v-0.643l0.396 0.643h0.198v-0.985h-0.182v0.658zM13.315 31.549h0.49v-0.167h-0.49v-0.215h0.527v-0.168h-0.727v0.985h0.747v-0.167h-0.548v-0.266zM17.792 31.386h-0.388v-0.388h-0.197v0.984h0.197v-0.431h0.388v0.431h0.198v-0.985h-0.198v0.388zM19.649 31.549h0.492v-0.167h-0.492v-0.215h0.529v-0.168h-0.726v0.985h0.746v-0.167h-0.548v-0.266zM22.168 31.55c0.171-0.027 0.258-0.118 0.258-0.274 0.001-0.008 0.002-0.018 0.002-0.028 0-0.079-0.038-0.148-0.098-0.191l-0.001-0c-0.073-0.037-0.159-0.059-0.25-0.059-0.014 0-0.027 0-0.040 0.001l0.002-0h-0.417v0.984h0.198v-0.412h0.039c0.005-0 0.010-0 0.016-0 0.039 0 0.076 0.008 0.109 0.023l-0.002-0.001c0.029 0.018 0.053 0.042 0.070 0.071l0.001 0.001 0.215 0.313h0.236l-0.12-0.192c-0.054-0.096-0.128-0.175-0.215-0.235l-0.002-0.002zM21.969 31.413h-0.146v-0.247h0.156c0.012-0.001 0.027-0.002 0.042-0.002 0.057 0 0.111 0.009 0.163 0.026l-0.004-0.001c0.026 0.024 0.043 0.058 0.043 0.096 0 0.042-0.020 0.080-0.052 0.104l-0 0c-0.049 0.016-0.106 0.025-0.164 0.025-0.013 0-0.026-0-0.039-0.001l0.002 0zM24.068 31.549h0.49v-0.167h-0.49v-0.215h0.529v-0.168h-0.729v0.985h0.747v-0.167h-0.548v-0.266z"></path>
		</symbol>
    <symbol id="icon-linkedin" viewBox="0 0 32 32">
      <path d="M31.992 32H32V20.262c0-5.741-1.237-10.163-7.947-10.163-3.227 0-5.392 1.77-6.277 3.45h-.093v-2.914h-6.365v21.363h6.627V21.42c0-2.786.528-5.48 3.978-5.48 3.398 0 3.448 3.179 3.448 5.658V32h6.621zM.528 10.635h6.635V32H.528V10.635zM3.843 0A3.843 3.843 0 0 0 0 3.843c0 2.12 1.722 3.878 3.843 3.878 2.12 0 3.842-1.757 3.842-3.878S5.965.002 3.844 0z"/>
    </symbol>
    <symbol id="icon-facebook" viewBox="0 0 32 32">
      <path d="M21.328 5.312h2.923V.224A36.483 36.483 0 0 0 20.143 0h-.156.008c-4.213 0-7.099 2.65-7.099 7.52V12H8.25v5.688h4.646V32h5.699V17.69h4.459l.707-5.688h-5.168V8.08c0-1.643.443-2.768 2.734-2.768z"/>
    </symbol>
    <symbol id="icon-twitter" viewBox="0 0 32 32">
      <path d="M32 6.078c-1.1.493-2.376.857-3.713 1.028l-.068.007a6.556 6.556 0 0 0 2.873-3.579l.013-.046a12.88 12.88 0 0 1-4.076 1.573l-.084.014A6.558 6.558 0 0 0 15.6 9.557v.004c0 .52.043 1.021.152 1.496-5.454-.266-10.28-2.88-13.522-6.861a6.524 6.524 0 0 0-.902 3.313v.001a6.57 6.57 0 0 0 2.914 5.451 6.453 6.453 0 0 1-2.994-.823l.033.017v.072a6.592 6.592 0 0 0 5.213 6.44l.043.008a6.403 6.403 0 0 1-1.662.215h-.061.003c-.419 0-.843-.024-1.242-.112.85 2.598 3.261 4.509 6.13 4.57a13.093 13.093 0 0 1-8.122 2.8H1.57h.001-.062c-.531 0-1.055-.034-1.569-.099l.061.006c2.826 1.846 6.287 2.944 10.004 2.944h.063-.003c12.072 0 18.672-10 18.672-18.669 0-.288-.01-.57-.024-.848a13.203 13.203 0 0 0 3.258-3.355l.03-.047z"/>
    </symbol>
    <symbol id="icon-instagram" viewBox="0 0 32 32">
      <path d="M31.968 9.408c-.074-1.701-.349-2.869-.742-3.882a7.839 7.839 0 0 0-1.85-2.837l-.001-.001A7.906 7.906 0 0 0 26.597.861l-.054-.018C25.524.449 24.362.176 22.661.101 20.949.019 20.405 0 16.059 0c-4.344 0-4.888.019-6.595.094-1.699.074-2.869.349-3.88.742a7.847 7.847 0 0 0-2.839 1.85l-.001.001A7.9 7.9 0 0 0 .919 5.465l-.018.054C.506 6.538.232 7.7.157 9.401c-.082 1.712-.101 2.256-.101 6.602 0 4.344.019 4.888.094 6.595.075 1.701.35 2.869.744 3.882a7.915 7.915 0 0 0 1.849 2.837l.001.001a7.887 7.887 0 0 0 2.778 1.825l.054.018c1.019.395 2.182.67 3.882.744 1.707.075 2.251.094 6.595.094 4.346 0 4.89-.019 6.595-.094 1.701-.074 2.869-.349 3.882-.742a8.237 8.237 0 0 0 4.664-4.628l.019-.055c.394-1.019.669-2.182.744-3.882.075-1.707.093-2.251.093-6.595s-.006-4.888-.08-6.595zm-2.88 13.066c-.07 1.563-.333 2.406-.55 2.97a5.341 5.341 0 0 1-3.004 3.024l-.036.012c-.56.219-1.411.482-2.968.55-1.688.075-2.194.094-6.464.094-4.269 0-4.782-.019-6.464-.094-1.563-.069-2.406-.331-2.97-.55a4.953 4.953 0 0 1-1.836-1.192l-.001-.001a4.978 4.978 0 0 1-1.184-1.803L3.6 25.45c-.218-.563-.48-1.413-.549-2.97-.075-1.688-.094-2.195-.094-6.464 0-4.27.019-4.784.094-6.464.069-1.563.331-2.406.549-2.97a4.897 4.897 0 0 1 1.198-1.837l.002-.002a4.972 4.972 0 0 1 1.806-1.182l.034-.011c.56-.219 1.411-.48 2.968-.55 1.688-.074 2.195-.093 6.464-.093 4.275 0 4.782.019 6.464.093 1.563.069 2.406.331 2.97.55a4.91 4.91 0 0 1 1.837 1.194c.531.52.938 1.144 1.195 1.84.218.56.48 1.411.549 2.968.075 1.688.094 2.194.094 6.464 0 4.269-.019 4.768-.094 6.458z"/>
      <path d="M16.059 7.782a8.223 8.223 0 0 0-8.219 8.221 8.223 8.223 0 0 0 16.442.008v-.009a8.223 8.223 0 0 0-8.221-8.221zm0 13.552a5.333 5.333 0 0 1 .001-10.666h.001a5.334 5.334 0 1 1 0 10.668zM26.525 7.458a1.92 1.92 0 0 1-3.84 0 1.92 1.92 0 0 1 3.84 0z"/>
    </symbol>
    <symbol id="icon-astronaut" viewBox="0 0 32 32">
      <path fill="var(--color1, #2196f3)" d="M31.974 4.524a.535.535 0 0 0-.427-.362h-.003l-1.911-.278-.855-1.731c-.179-.365-.777-.365-.956 0l-.855 1.731-1.911.278a.534.534 0 0 0-.296.91l1.383 1.348-.326 1.903a.532.532 0 0 0 .774.562l1.709-.899 1.709.899a.534.534 0 0 0 .773-.565v.003l-.326-1.903 1.383-1.348a.535.535 0 0 0 .134-.55l.001.004zm-2.463 1.327a.53.53 0 0 0-.153.472l.191 1.114-1-.526a.525.525 0 0 0-.501.001l.003-.001-1 .526.191-1.114a.53.53 0 0 0-.152-.472l-.811-.79 1.119-.162a.532.532 0 0 0 .402-.292l.5-1.013.5 1.013a.532.532 0 0 0 .402.292l1.119.162-.809.79zm-3.377 14.671h-1.067v1.067h1.067v-1.067zm0 2.134h-1.067v1.066h1.067v-1.066zm1.066-1.067h-1.067v1.067H27.2v-1.067zm-2.133 0H24v1.067h1.067v-1.067zm-2.667 4.8h-1.067v1.067H22.4v-1.067zm0 2.134h-1.067v1.067H22.4v-1.067zm1.067-1.067H22.4v1.067h1.067v-1.067zm-2.133 0h-1.067v1.067h1.067v-1.067zM16 24.256h-1.066v1.067H16v-1.067zm0 2.133h-1.066v1.067H16v-1.067zm1.067-1.067H16v1.067h1.067v-1.067zm-2.133 0h-1.067v1.067h1.067v-1.067zm-9.067-19.2H4.801v1.066h1.066V6.122zm0 2.134H4.801v1.066h1.066V8.256zm1.066-1.067H5.866v1.067h1.066V7.189zm-2.133 0H3.733v1.067H4.8V7.189z"/>
      <path fill="var(--color2, #212121)" d="M24.715 14.16a1.774 1.774 0 0 0-1.179-.703l-.009-.001a1.769 1.769 0 0 0-1.344.355l.004-.003-1.253.96-1.898 1.417-1.358-.541c2.421-1.086 4.113-3.508 4.113-6.32 0-3.823-3.122-6.934-6.961-6.934S7.869 5.5 7.869 9.324c0 1.386.415 2.674 1.12 3.759l-2.768-.024c-.009 0-.016.005-.023.005a.511.511 0 0 0-.159.033l.004-.001c-.013.005-.026.007-.038.013-.006.003-.013.003-.019.006l-3.233 1.596-.001.001-1.893.91a.5.5 0 0 0-.065.036l.001-.001a1.782 1.782 0 0 0-.594 2.306l-.005-.01c.22.424.592.742 1.043.885l.013.003a1.772 1.772 0 0 0 1.388-.133l-.009.005 1.388-.738 2.264-1.169 1.357-.008-5.442 5.415-.001.001-1.339 1.333a1.643 1.643 0 0 0-.491 1.173v.005a1.668 1.668 0 0 0 1.667 1.664h.002a1.67 1.67 0 0 0 1.18-.485l1.314-1.309 1.741-1.3.901.897L4.07 27.28a1.643 1.643 0 0 0-.491 1.173v.004a1.662 1.662 0 0 0 1.666 1.664h.003a1.67 1.67 0 0 0 1.18-.485l4.488-4.472c.007-.006.016-.009.022-.016l5.166-5.658 3.471.494a.474.474 0 0 0 .262-.032c.017-.006.032-.015.049-.023.019-.01.039-.015.058-.027l3.213-2.133c.012-.008.018-.021.029-.03.013-.01.029-.014.041-.026l1.271-1.191c.348-.326.564-.787.564-1.3 0-.4-.132-.769-.355-1.066l.003.005zM2.13 17.77a.706.706 0 0 1-.564.05l.005.001a.717.717 0 0 1-.215-1.258l.002-.001 1.314-.632.316.924.133.389-.992.527zm3.497-1.828-1.548.8-.255-.746-.184-.537 2.027-1.001-.04 1.484zm15.1-6.62c0 .918-.219 1.785-.599 2.56l-4.181-1.899a1.865 1.865 0 0 0-.782-1.384l-.006-.004 1.464-4.861c2.377.757 4.104 2.975 4.104 5.588zm-11.789 0c0-3.235 2.644-5.867 5.894-5.867.253 0 .5.022.745.053l-1.432 4.753c-.019 0-.037-.006-.057-.006h-.001a1.872 1.872 0 0 0-1.872 1.867 1.873 1.873 0 0 0 1.872 1.867h.001c.695 0 1.295-.383 1.618-.944l3.863 1.755a5.891 5.891 0 0 1-4.737 2.39c-3.25 0-5.894-2.632-5.894-5.867zm5.957.8a.805.805 0 0 1-.805.8h-.003a.804.804 0 0 1-.804-.8c0-.441.361-.8.806-.8s.806.359.806.8zM2.464 25.146a.606.606 0 0 1-.855.001.591.591 0 0 1 0-.844l.962-.959.852.848-.959.954zm3.214 3.734a.606.606 0 0 1-.855.001.591.591 0 0 1 0-.844l.963-.959.852.848-.96.955zm3.482-3.469-.001.001-1.765 1.76-.852-.848 1.765-1.757a.527.527 0 0 0 .09-.136c.007-.014.02-.026.026-.04.016-.041.019-.085.026-.128.003-.025.014-.048.014-.073 0-.035-.013-.07-.02-.105-.006-.032-.006-.064-.019-.096a.536.536 0 0 0-.092-.138c-.01-.012-.014-.026-.025-.038h-.001l-.001-.002-1.607-1.6c-.017-.017-.039-.024-.058-.038a.491.491 0 0 0-.084-.056l-.003-.001a.527.527 0 0 0-.09-.031l-.003-.001a.502.502 0 0 0-.101-.02h-.025a.603.603 0 0 0-.075.005h.003c-.036.005-.069.009-.104.021s-.064.027-.094.045c-.02.011-.043.015-.061.029l-1.774 1.324-.901-.897 2.399-2.386 4.36 4.289-.928.919zm6.819-7.017c-.016-.002-.03.004-.046.003l-.027-.001a.562.562 0 0 0-.092.008h.003a.484.484 0 0 0-.187.07l.002-.001a.492.492 0 0 0-.083.061c-.013.011-.028.016-.04.029l-4.698 5.146-4.328-4.256 2.833-2.818a.535.535 0 0 0-.378-.911h-.002l-2.219.013.028-1.607 3.104.027a6.928 6.928 0 0 0 4.978 2.101h.003c.438 0 .864-.046 1.28-.122.04.032.08.064.129.085l2.41.96.152.758.178.886-3.003-.427zm4.041.178-.313-1.558 1.446-1.08.946 1.257-2.08 1.381zm3.753-2.831-.837.785-.931-1.236.831-.637a.735.735 0 0 1 .543-.143.718.718 0 0 1 .621.71.71.71 0 0 1-.226.521z"/>
      <path fill="var(--color2, #212121)" d="m13.602 18.544-2.143-2.134a.53.53 0 0 0-.752 0l-2.143 2.133a.535.535 0 0 0 0 .756l2.142 2.134a.53.53 0 0 0 .752 0l2.143-2.134a.532.532 0 0 0 0-.756zm-2.519 1.759-1.387-1.381 1.386-1.381 1.387 1.381-1.387 1.381zm6.081-15.232-.258 1.036c.071.018 1.738.452 1.738 2.149h1.067c0-2.017-1.666-2.965-2.547-3.184zm2.547 4.251h-1.067v1.066h1.067V9.322z"/>
    </symbol>
    <symbol id="icon-diagram" viewBox="0 0 32 32">
      <path fill="var(--color1, #2196f3)" d="M14.926 14.965h1.066v4.798h-1.066v-4.798zm4.264 2.132h1.066v2.665H19.19v-2.665zm-8.529 1.599h1.066v1.066h-1.066v-1.066zm-3.198-.533h1.066v1.599H7.463v-1.599z"/>
      <path fill="var(--color2, #212121)" d="M1.599 28.291h25.586a1.6 1.6 0 0 0 1.599-1.599V24.56a1.6 1.6 0 0 0-1.599-1.599h-.533V9.667l3.028-2.868a1.608 1.608 0 1 0-.742-.752l-.004-.01-2.281 2.162v-1.23a1.6 1.6 0 0 0-1.599-1.599H3.731a1.6 1.6 0 0 0-1.599 1.599v15.992h-.533A1.6 1.6 0 0 0 0 24.56v2.132a1.6 1.6 0 0 0 1.599 1.599zM30.384 4.837a.533.533 0 0 1 0 1.066.533.533 0 0 1 0-1.066zM3.198 6.969c0-.294.239-.533.533-.533h21.323c.294 0 .533.239.533.533v2.239l-1.066 1.013V8.036a.534.534 0 0 0-.534-.534H4.798a.534.534 0 0 0-.534.533v13.327c0 .294.239.533.534.533h19.189a.534.534 0 0 0 .534-.533v-9.675l1.066-1.01V22.96H3.198V6.969zm4.798 6.93h-.005a1.6 1.6 0 1 0 1.112 2.748l1.853.93a.534.534 0 0 0 .636-.122v-.001l3.939-4.432 3.872 2.902a.534.534 0 0 0 .686-.039l3.365-3.188v8.131H5.331V8.567h18.123v2.661L19.683 14.8l-3.904-2.927a.534.534 0 0 0-.718.071v.001l-3.993 4.493-1.493-.746c.011-.064.017-.128.02-.193A1.6 1.6 0 0 0 7.996 13.9zm.533 1.599a.533.533 0 0 1-1.066 0 .533.533 0 0 1 1.066 0zm3.198 8.528h5.33v.533a.533.533 0 0 1-.533.533h-4.265a.533.533 0 0 1-.533-.533v-.533zm-10.66.534c0-.294.238-.533.533-.533h9.062v.533a1.6 1.6 0 0 0 1.599 1.599h4.265a1.6 1.6 0 0 0 1.599-1.599v-.533h9.062c.294 0 .533.239.533.533v2.132a.533.533 0 0 1-.533.533H1.601a.533.533 0 0 1-.533-.533V24.56z"/>
    </symbol>
    <symbol id="icon-clock" viewBox="0 0 32 32">
      <path fill="var(--color2, #212121)" d="M31.296 15.301C31.295 6.849 24.441-.002 15.988 0S.685 6.855.687 15.308c.002 6.788 4.422 12.543 10.541 14.545l.108.031a.667.667 0 0 0 .529-.065.636.636 0 0 0 .283-.357l3.865-12.25a1.913 1.913 0 1 0-.852-3.63l.011-.005-5.106-5.107a.638.638 0 0 0-.902.902l5.103 5.109a1.847 1.847 0 0 0-.191.826c0 .602.283 1.137.723 1.48l.004.003-3.682 11.673C3.843 25.782.117 17.709 2.797 10.431S13.551-.573 20.829 2.108c7.278 2.681 11.004 10.754 8.323 18.032-1.345 3.581-4.003 6.406-7.374 7.938l-.088.036-.398-1.874a.639.639 0 0 0-1.05-.343l.001-.001-3.837 3.426a.637.637 0 0 0 .227 1.083l.005.001 4.899 1.563a.637.637 0 0 0 .818-.744l.001.004-.391-1.839c5.528-2.374 9.329-7.772 9.329-14.057v-.034.002zm-15.304-.637a.638.638 0 0 1 0 1.276.638.638 0 0 1 0-1.276zm2.1 14.864 2.184-1.948.603 2.84-2.787-.892z"/>
      <path fill="var(--color1, #2196f3)" d="M15.354 3.185V4.46a.638.638 0 0 0 1.276 0V3.185a.638.638 0 1 0-1.276 0zM3.876 14.664a.638.638 0 0 0 0 1.276h1.275a.638.638 0 0 0 0-1.276H3.876zm24.232 1.275a.638.638 0 0 0 0-1.276h-1.275a.638.638 0 0 0 0 1.276h1.275z"/>
    </symbol>
    <symbol id="icon-antenna" viewBox="0 0 32 32">
      <path fill="var(--color2, #212121)" d="m30.773 22.098-8.443-8.505.937-4.616c.225.09.485.144.758.146h.033a2.16 2.16 0 1 0-2.029-1.42l-.005-.015-4.96.606L8.973.161a.53.53 0 0 0-.376-.16.531.531 0 0 0-.373.155L6.712 1.66a.535.535 0 0 0 0 .754l.814.825C6.383 5.301 5.71 7.761 5.71 10.378c0 4.106 1.656 7.824 4.336 10.525l-.001-.001a.49.49 0 0 0 .146.097 2.986 2.986 0 0 0-.052.546v6.188h-6.4a2.669 2.669 0 0 0-2.667 2.666v1.067c0 .295.239.534.534.534H26.14a.534.534 0 0 0 .533-.534v-1.067a2.67 2.67 0 0 0-2.666-2.666h-6.4v-2.742a14.784 14.784 0 0 0 10.166-1.502l-.077.039.818.823a.534.534 0 0 0 .376.16.536.536 0 0 0 .373-.155l1.512-1.504a.535.535 0 0 0 0-.754zM23.28 6.233a1.067 1.067 0 1 1 .752 1.822h-.004a1.066 1.066 0 0 1-.747-1.822h-.002zm-1.256 3.504-.598 2.946-1.175-1.183 1.774-1.763zm-.605-.902-1.92 1.909-1.486-1.493 3.406-.416zM24.004 28.8a1.6 1.6 0 0 1 1.6 1.6v.534H2.138V30.4a1.6 1.6 0 0 1 1.6-1.6h20.267zm-7.466-2.134v1.067h-5.334v-1.067h5.334zM11.204 25.6v-4.053c0-1.294 1.196-2.346 2.667-2.346s2.667 1.053 2.667 2.346V25.6h-5.334zm6.4-1.696v-2.357c0-1.882-1.675-3.413-3.733-3.413h-.058c-1.353 0-2.54.707-3.213 1.771l-.009.016a13.817 13.817 0 0 1-3.812-9.55c0-2.314.567-4.496 1.569-6.414l-.036.077 18.602 18.709c-1.823.947-3.979 1.502-6.266 1.502-1.079 0-2.128-.124-3.136-.357l.093.018zm11.289-.684L7.836 2.039l.754-.752 7.935 7.98c.004 0 .006.007.01.01l13.114 13.191-.757.752z"/>
      <path fill="var(--color1, #2196f3)" d="M13.876 20.267h-.007a1.6 1.6 0 0 0-.003 3.2h.007a1.6 1.6 0 0 0 .002-3.2zm.373 1.978a.534.534 0 1 1-.378-.912.533.533 0 0 1 .374.911h.005z"/>
    </symbol>
    <symbol id="icon-envelope" viewBox="0 0 32 32">
      <path d="M29 4H3C1.346 4 0 5.346 0 7v18c0 1.654 1.346 3 3 3h26c1.654 0 3-1.346 3-3V7c0-1.654-1.346-3-3-3zm0 2c.136 0 .266.028.384.078L16 17.678 2.616 6.078A.971.971 0 0 1 3 6h26zm0 20H3a1 1 0 0 1-1-1V8.19l13.344 11.566a.997.997 0 0 0 1.313-.001l-.001.001L30 8.19V25a1 1 0 0 1-1 1z"/>
    </symbol>
    <symbol id="icon-smartphone" viewBox="0 0 32 32">
      <path d="M23 0H9C7.346 0 6 1.346 6 3v26c0 1.654 1.346 3 3 3h14c1.654 0 3-1.346 3-3V3c0-1.654-1.346-3-3-3zM9 2h14a1 1 0 0 1 1 1v21H8V3a1 1 0 0 1 1-1zm14 28H9a1 1 0 0 1-1-1v-3h16v3a1 1 0 0 1-1 1z"/>
      <path d="M10.708 27.478a.889.889 0 0 1 .001 1.319l-.001.001a1.048 1.048 0 0 1-1.417 0l.001.001a.889.889 0 0 1-.001-1.319l.001-.001a1.048 1.048 0 0 1 1.417 0l-.001-.001z"/>
    </symbol>
		<symbol id="icon-close-black" viewBox="0 0 32 32">
			<path d="M26.667 7.303l-1.97-1.97-7.808 7.808-7.808-7.808-1.97 1.97 7.808 7.808-7.808 7.808 1.97 1.97 7.808-7.808 7.808 7.808 1.97-1.97-7.808-7.808 7.808-7.808z"></path>
		</symbol>
		<symbol id="icon-icon-send" viewBox="0 0 32 32">
			<path fill="#fff" style="fill: var(--color1, #fff)" d="M32 0l-32 18 10.227 3.787 15.773-14.787-11.997 16.187 0.009 0.003-0.012-0.003v8.813l5.735-6.691 7.267 2.691 4.999-28z"></path>
		</symbol>
		<symbol id="icon-email" viewBox="0 0 43 32">
			<path  d="M37.333 0h-32c-2.2 0-3.981 1.8-3.981 4l-0.019 24c0 2.2 1.8 4 4 4h32c2.2 0 4-1.8 4-4v-24c0-2.2-1.8-4-4-4zM36.533 8.501l-14.139 8.837c-0.302 0.188-0.668 0.3-1.060 0.3s-0.758-0.112-1.069-0.305l0.009 0.005-14.141-8.84c-0.503-0.301-0.835-0.843-0.835-1.463 0-0.938 0.761-1.699 1.699-1.699 0.349 0 0.673 0.105 0.943 0.285l-0.006-0.004 13.4 8.381 13.4-8.381c0.264-0.176 0.588-0.282 0.937-0.282 0.938 0 1.699 0.761 1.699 1.699 0 0.62-0.332 1.162-0.828 1.459l-0.008 0.004z"></path>
		</symbol>
		<symbol id="icon-phone" viewBox="0 0 32 32">
			<path d="M27.419 20.853l-4.201-0.48c-0.116-0.014-0.25-0.023-0.385-0.023-0.909 0-1.732 0.369-2.328 0.964l-3.045 3.045c-4.718-2.435-8.467-6.185-10.835-10.764l-0.065-0.139 3.063-3.056c0.596-0.596 0.964-1.419 0.964-2.328 0-0.136-0.008-0.27-0.024-0.401l0.002 0.016-0.48-4.169c-0.199-1.655-1.595-2.926-3.287-2.926-0.001 0-0.003 0-0.004 0h-2.861c-1.87-0.005-3.424 1.55-3.31 3.417 0.878 14.126 12.176 25.408 26.286 26.286 1.867 0.114 3.424-1.44 3.424-3.31v-2.862c0-0.005 0-0.010 0-0.016 0-1.681-1.266-3.067-2.897-3.256l-0.015-0.001z"></path>
		</symbol>
		<symbol id="icon-fio" viewBox="0 0 32 32">
			<path  d="M16 16c4.418 0 8-3.582 8-8s-3.582-8-8-8v0c-4.418 0-8 3.582-8 8s3.582 8 8 8v0zM16 20c-5.339 0-16 2.68-16 8v2c0 1.099 0.901 2 2 2h28c1.099 0 2-0.901 2-2v-2c0-5.32-10.661-8-16-8z"></path>
		</symbol>
<symbol id="icon-check" viewBox="0 0 34 32">
<path fill="#fff" style="fill: var(--color1, #fff); stroke: var(--color1, #fff)" stroke="#fff" stroke-linejoin="miter" stroke-linecap="butt" stroke-miterlimit="4" stroke-width="0.4267" d="M8.442 16.537l-0.147-0.14-2.205 2.088 7.767 7.41 16.318-15.567-2.19-2.089-14.128 13.465-5.416-5.167z"></path>
</symbol>

<symbol id="icon-close" viewBox="0 0 32 32"><path d="M31.439 3.166 28.273 0 15.72 12.553 3.167 0 .001 3.166l12.553 12.553L.001 28.272l3.166 3.166L15.72 18.885l12.553 12.553 3.166-3.166-12.553-12.553L31.439 3.166z"/></symbol>
<symbol id="icon-menu" viewBox="0 0 48 32"><path d="M0 5.333V0h48v5.333H0zm0 13.334h48v-5.333H0v5.333zM0 32h48v-5.333H0V32z"/></symbol>
  </defs>
</svg>
